<?xml version="1.0" encoding="utf-8"?>
<!-- Generator: Adobe Illustrator 22.1.0, SVG Export Plug-In . SVG Version: 6.00 Build 0)  -->
<svg version="1.1" id="_x2014_ÎÓÈ_x5F_1" xmlns="http://www.w3.org/2000/svg" xmlns:xlink="http://www.w3.org/1999/xlink"
	 x="0px" y="0px" width="2797.6px" height="1889.1px" viewBox="0 0 2797.6 1889.1"
	 style="enable-background:new 0 0 2797.6 1889.1;" xml:space="preserve">
<style type="text/css">
	.st0{opacity:0.59;fill:url(#SVGID_1_);}
	.st1{fill:url(#SVGID_2_);}
	.st2{fill:url(#SVGID_3_);}
	.st3{opacity:0.74;fill:url(#SVGID_4_);}
	.st4{fill:#737FFF;}
	.st5{opacity:0.21;fill:#FFFFFF;}
	.st6{fill:#FFFFFF;}
</style>
<linearGradient id="SVGID_1_" gradientUnits="userSpaceOnUse" x1="-141.9947" y1="907.9199" x2="2891.3911" y2="907.9199">
	<stop  offset="0" style="stop-color:#DBEAFF"/>
	<stop  offset="0.8717" style="stop-color:#E6ECF3"/>
	<stop  offset="1" style="stop-color:#E8ECF1"/>
</linearGradient>
<rect x="-142" y="-149.7" class="st0" width="3033.4" height="2115.3"/>
<g>
	
		<linearGradient id="SVGID_2_" gradientUnits="userSpaceOnUse" x1="1938.9167" y1="728.244" x2="1371.2537" y2="2205.8699" gradientTransform="matrix(-0.563 -0.8265 0.8265 -0.563 81.0012 1938.2112)">
		<stop  offset="0" style="stop-color:#FFC9EB"/>
		<stop  offset="0.1323" style="stop-color:#F8C5EC"/>
		<stop  offset="0.3233" style="stop-color:#E5BBEF"/>
		<stop  offset="0.5499" style="stop-color:#C6ABF3"/>
		<stop  offset="0.8016" style="stop-color:#9A94F9"/>
		<stop  offset="1" style="stop-color:#737FFF"/>
	</linearGradient>
	<path class="st1" d="M-329.9-427.3c-53.8,33-87.4,87.5-91.2,148.3C-432-106.4-400.4,241.5,0.4,381.8
		C454.4,540.6,537.6-46.8,918.8,72.4c3.8,1.2,7.6,2.4,11.4,3.5c196.9,60.7,353.4-137.9,234-296.8L715-818.5
		c-71-94.5-208.6-121.9-307.3-61.3L-329.9-427.3z"/>
	
		<linearGradient id="SVGID_3_" gradientUnits="userSpaceOnUse" x1="-980.1953" y1="-123.9866" x2="232.5355" y2="-123.9866" gradientTransform="matrix(0.563 0.8265 -0.8265 0.563 80.8292 1848.2034)">
		<stop  offset="0" style="stop-color:#FFC9EB"/>
		<stop  offset="0.1323" style="stop-color:#F8C5EC"/>
		<stop  offset="0.3233" style="stop-color:#E5BBEF"/>
		<stop  offset="0.5499" style="stop-color:#C6ABF3"/>
		<stop  offset="0.8016" style="stop-color:#9A94F9"/>
		<stop  offset="1" style="stop-color:#737FFF"/>
	</linearGradient>
	<path class="st2" d="M646.7,1743.8c53.8-33,87.4-87.5,91.2-148.3c10.9-172.6-20.8-520.5-421.6-660.8
		c-453.9-158.8-537.2,428.5-918.4,309.4c-3.8-1.2-7.6-2.4-11.4-3.5c-196.9-60.7-353.4,137.9-234,296.8l449.2,597.6
		c71,94.5,208.6,121.9,307.3,61.3L646.7,1743.8z"/>
</g>
<linearGradient id="SVGID_4_" gradientUnits="userSpaceOnUse" x1="1100.2795" y1="1048.6235" x2="2891.3911" y2="1048.6235">
	<stop  offset="0" style="stop-color:#FFC9EB"/>
	<stop  offset="0.1323" style="stop-color:#F8C5EC"/>
	<stop  offset="0.3233" style="stop-color:#E5BBEF"/>
	<stop  offset="0.5499" style="stop-color:#C6ABF3"/>
	<stop  offset="0.8016" style="stop-color:#9A94F9"/>
	<stop  offset="1" style="stop-color:#737FFF"/>
</linearGradient>
<path class="st3" d="M2891.4,451.6c0,0-567.8-587.3-1175.6-170.4c-508.2,348.5,114.9,895.3-295.3,1199.1s-309.2,485.3-309.2,485.3
	h1780.1V451.6z"/>
<path class="st4" d="M-1498.7,854.3h-257.5c-27.3,0-49.4-22.1-49.4-49.4l0,0c0-27.3,22.1-49.4,49.4-49.4h257.5
	c27.3,0,49.4,22.1,49.4,49.4v0C-1449.3,832.2-1471.4,854.3-1498.7,854.3z"/>
<ellipse class="st5" cx="1817.6" cy="1481.3" rx="830.1" ry="178.6"/>
<g>
	<path class="st4" d="M-1799.4,237.5c5.2-1.1,12.6-1.6,19.6-1.6c10.9,0,18,2,22.9,6.5c4,3.5,6.2,8.9,6.2,15.1
		c0,10.5-6.6,17.4-14.9,20.2v0.4c6.1,2.1,9.8,7.8,11.6,16c2.6,11.1,4.5,18.7,6.1,21.8h-10.6c-1.3-2.2-3.1-9.1-5.3-18.9
		c-2.4-10.9-6.6-15.1-15.9-15.4h-9.6v34.3h-10.2V237.5z M-1789.1,273.6h10.5c10.9,0,17.9-6,17.9-15.1c0-10.2-7.4-14.7-18.2-14.8
		c-4.9,0-8.5,0.5-10.1,0.9V273.6z"/>
	<path class="st4" d="M-1671.5,278.6h-30.8v28.6h34.3v8.6h-44.6v-79.3h42.8v8.6h-32.6v25.1h30.8V278.6z"/>
	<path class="st4" d="M-1564.4,280.9c-0.6-11.1-1.3-24.3-1.2-34.2h-0.4c-2.7,9.3-6,19.2-10,30.1l-14,38.5h-7.8l-12.8-37.8
		c-3.8-11.2-6.9-21.4-9.2-30.8h-0.2c-0.2,9.9-0.8,23.2-1.5,35l-2.1,34h-9.8l5.5-79.3h13.1l13.5,38.3c3.3,9.8,6,18.5,8,26.7h0.4
		c2-8,4.8-16.7,8.4-26.7l14.1-38.3h13.1l4.9,79.3h-10L-1564.4,280.9z"/>
	<path class="st4" d="M-1445.3,275.3c0,27.3-16.6,41.8-36.8,41.8c-20.9,0-35.6-16.2-35.6-40.2c0-25.2,15.6-41.6,36.8-41.6
		C-1459.3,235.2-1445.3,251.7-1445.3,275.3z M-1506.9,276.6c0,16.9,9.2,32.1,25.3,32.1c16.2,0,25.4-14.9,25.4-32.9
		c0-15.8-8.2-32.2-25.3-32.2C-1498.4,243.5-1506.9,259.1-1506.9,276.6z"/>
	<path class="st4" d="M-1396.4,245.1h-24.1v-8.7h58.7v8.7h-24.2v70.6h-10.3V245.1z"/>
	<path class="st4" d="M-1288.4,278.6h-30.8v28.6h34.3v8.6h-44.6v-79.3h42.8v8.6h-32.6v25.1h30.8V278.6z"/>
	<path class="st4" d="M-1191,315.7l-20.1-79.3h10.8l9.4,40.1c2.4,9.9,4.5,19.8,5.9,27.4h0.2c1.3-7.9,3.8-17.3,6.5-27.5l10.6-40h10.7
		l9.6,40.2c2.2,9.4,4.4,18.8,5.5,27.2h0.2c1.6-8.7,3.9-17.5,6.4-27.4l10.5-40h10.5l-22.5,79.3h-10.7l-10-41.3
		c-2.5-10.1-4.1-17.9-5.2-25.9h-0.2c-1.4,7.9-3.2,15.6-6.1,25.9l-11.3,41.3H-1191z"/>
	<path class="st4" d="M-1013.1,275.3c0,27.3-16.6,41.8-36.8,41.8c-20.9,0-35.6-16.2-35.6-40.2c0-25.2,15.6-41.6,36.8-41.6
		C-1027.1,235.2-1013.1,251.7-1013.1,275.3z M-1074.6,276.6c0,16.9,9.2,32.1,25.3,32.1c16.2,0,25.4-14.9,25.4-32.9
		c0-15.8-8.2-32.2-25.3-32.2C-1066.2,243.5-1074.6,259.1-1074.6,276.6z"/>
	<path class="st4" d="M-976.3,237.5c5.2-1.1,12.6-1.6,19.6-1.6c10.9,0,18,2,22.9,6.5c4,3.5,6.2,8.9,6.2,15.1
		c0,10.5-6.6,17.4-14.9,20.2v0.4c6.1,2.1,9.8,7.8,11.6,16c2.6,11.1,4.5,18.7,6.1,21.8h-10.6c-1.3-2.2-3.1-9.1-5.3-18.9
		c-2.4-10.9-6.6-15.1-15.9-15.4h-9.6v34.3h-10.2V237.5z M-966.1,273.6h10.5c10.9,0,17.9-6,17.9-15.1c0-10.2-7.4-14.7-18.2-14.8
		c-4.9,0-8.5,0.5-10.1,0.9V273.6z"/>
	<path class="st4" d="M-889.5,236.4h10.2v38.2h0.4c2.1-3.1,4.2-5.9,6.2-8.5l24.2-29.8h12.7l-28.7,33.6l30.9,45.6h-12.1l-26.1-38.9
		l-7.5,8.7v30.2h-10.2V236.4z"/>
</g>
<g>
	<path class="st4" d="M-1800.7,369.8h4.4v30.3h14.5v3.7h-18.9V369.8z"/>
	<path class="st4" d="M-1753.2,391.4c0,9-6.2,13-12.1,13c-6.6,0-11.7-4.8-11.7-12.5c0-8.2,5.3-13,12.1-13
		C-1757.9,378.8-1753.2,383.9-1753.2,391.4z M-1772.5,391.6c0,5.3,3.1,9.4,7.4,9.4c4.2,0,7.4-4,7.4-9.5c0-4.1-2.1-9.4-7.3-9.4
		C-1770.3,382.2-1772.5,387-1772.5,391.6z"/>
	<path class="st4" d="M-1745.1,387c0-2.9-0.1-5.3-0.2-7.6h3.9l0.2,4.8h0.2c1.1-3.3,3.8-5.3,6.8-5.3c0.5,0,0.9,0.1,1.3,0.2v4.2
		c-0.5-0.1-0.9-0.2-1.5-0.2c-3.1,0-5.3,2.4-5.9,5.7c-0.1,0.6-0.2,1.3-0.2,2.1v13h-4.4V387z"/>
	<path class="st4" d="M-1724.1,392.4c0.1,6,3.9,8.5,8.4,8.5c3.2,0,5.1-0.6,6.8-1.3l0.8,3.2c-1.6,0.7-4.2,1.5-8.1,1.5
		c-7.5,0-12-4.9-12-12.3c0-7.4,4.3-13.2,11.4-13.2c8,0,10.1,7,10.1,11.5c0,0.9-0.1,1.6-0.2,2.1H-1724.1z M-1711.1,389.2
		c0.1-2.8-1.2-7.2-6.1-7.2c-4.5,0-6.5,4.1-6.8,7.2H-1711.1z"/>
	<path class="st4" d="M-1698.8,386c0-2.5-0.1-4.6-0.2-6.6h3.9l0.2,3.9h0.2c1.4-2.3,3.6-4.5,7.7-4.5c3.3,0,5.8,2,6.9,4.9h0.1
		c0.8-1.4,1.7-2.4,2.7-3.2c1.5-1.1,3.1-1.7,5.4-1.7c3.2,0,8,2.1,8,10.6v14.4h-4.3V390c0-4.7-1.7-7.5-5.3-7.5c-2.5,0-4.5,1.9-5.2,4
		c-0.2,0.6-0.4,1.4-0.4,2.2v15.1h-4.3v-14.6c0-3.9-1.7-6.7-5.1-6.7c-2.8,0-4.8,2.2-5.5,4.4c-0.3,0.7-0.4,1.4-0.4,2.2v14.7h-4.3V386z
		"/>
	<path class="st4" d="M-1636.1,372.5c0.1,1.5-1.1,2.7-2.8,2.7c-1.6,0-2.7-1.2-2.7-2.7c0-1.6,1.2-2.8,2.8-2.8
		C-1637.2,369.8-1636.1,371-1636.1,372.5z M-1641.1,403.8v-24.4h4.4v24.4H-1641.1z"/>
	<path class="st4" d="M-1626.7,387.4c0-3.1-0.1-5.6-0.2-8h4l0.2,4.2h0.1c1.8-3,4.7-4.7,8.7-4.7c5.9,0,10.3,5,10.3,12.4
		c0,8.8-5.3,13.1-11.1,13.1c-3.2,0-6-1.4-7.5-3.8h-0.1v13.3h-4.4V387.4z M-1622.4,393.9c0,0.7,0.1,1.3,0.2,1.8
		c0.8,3.1,3.5,5.2,6.7,5.2c4.7,0,7.4-3.8,7.4-9.4c0-4.9-2.6-9.1-7.3-9.1c-3,0-5.8,2.2-6.7,5.5c-0.2,0.6-0.3,1.2-0.3,1.8V393.9z"/>
	<path class="st4" d="M-1596.2,399.3c1.3,0.9,3.6,1.8,5.8,1.8c3.2,0,4.7-1.6,4.7-3.6c0-2.1-1.3-3.3-4.5-4.5c-4.4-1.6-6.5-4-6.5-6.9
		c0-3.9,3.2-7.2,8.4-7.2c2.5,0,4.6,0.7,6,1.5l-1.1,3.2c-1-0.6-2.7-1.4-5-1.4c-2.6,0-4.1,1.5-4.1,3.3c0,2,1.5,2.9,4.6,4.1
		c4.2,1.6,6.4,3.7,6.4,7.4c0,4.3-3.3,7.3-9.1,7.3c-2.7,0-5.1-0.7-6.9-1.7L-1596.2,399.3z"/>
	<path class="st4" d="M-1552.7,397.1c0,2.5,0.1,4.7,0.2,6.7h-3.9l-0.3-4h-0.1c-1.2,2-3.7,4.5-8.1,4.5c-3.8,0-8.4-2.1-8.4-10.7v-14.3
		h4.4v13.5c0,4.6,1.4,7.8,5.4,7.8c3,0,5-2.1,5.8-4c0.3-0.7,0.4-1.5,0.4-2.3v-15h4.4V397.1z"/>
	<path class="st4" d="M-1542.8,386c0-2.5-0.1-4.6-0.2-6.6h3.9l0.2,3.9h0.2c1.4-2.3,3.6-4.5,7.7-4.5c3.3,0,5.8,2,6.9,4.9h0.1
		c0.8-1.4,1.7-2.4,2.7-3.2c1.5-1.1,3.1-1.7,5.4-1.7c3.2,0,8,2.1,8,10.6v14.4h-4.3V390c0-4.7-1.7-7.5-5.3-7.5c-2.5,0-4.5,1.9-5.2,4
		c-0.2,0.6-0.4,1.4-0.4,2.2v15.1h-4.3v-14.6c0-3.9-1.7-6.7-5.1-6.7c-2.8,0-4.8,2.2-5.5,4.4c-0.3,0.7-0.4,1.4-0.4,2.2v14.7h-4.3V386z
		"/>
	<path class="st4" d="M-1464,368v29.5c0,2.2,0.1,4.6,0.2,6.3h-4l-0.2-4.2h-0.1c-1.4,2.7-4.3,4.8-8.3,4.8c-5.9,0-10.4-5-10.4-12.4
		c-0.1-8.1,5-13.1,10.9-13.1c3.7,0,6.2,1.8,7.4,3.7h0.1V368H-1464z M-1468.4,389.3c0-0.6-0.1-1.3-0.2-1.9c-0.7-2.8-3.1-5.1-6.4-5.1
		c-4.6,0-7.3,4-7.3,9.4c0,4.9,2.4,9,7.2,9c3,0,5.7-2,6.5-5.3c0.2-0.6,0.2-1.2,0.2-1.9V389.3z"/>
	<path class="st4" d="M-1432,391.4c0,9-6.2,13-12.1,13c-6.6,0-11.7-4.8-11.7-12.5c0-8.2,5.3-13,12.1-13
		C-1436.8,378.8-1432,383.9-1432,391.4z M-1451.4,391.6c0,5.3,3.1,9.4,7.4,9.4c4.2,0,7.4-4,7.4-9.5c0-4.1-2.1-9.4-7.3-9.4
		C-1449.1,382.2-1451.4,387-1451.4,391.6z"/>
	<path class="st4" d="M-1423.9,368h4.4v35.8h-4.4V368z"/>
	<path class="st4" d="M-1387.4,391.4c0,9-6.2,13-12.1,13c-6.6,0-11.7-4.8-11.7-12.5c0-8.2,5.3-13,12.1-13
		C-1392.2,378.8-1387.4,383.9-1387.4,391.4z M-1406.8,391.6c0,5.3,3.1,9.4,7.4,9.4c4.2,0,7.4-4,7.4-9.5c0-4.1-2.1-9.4-7.3-9.4
		C-1404.5,382.2-1406.8,387-1406.8,391.6z"/>
	<path class="st4" d="M-1379.3,387c0-2.9-0.1-5.3-0.2-7.6h3.9l0.2,4.8h0.2c1.1-3.3,3.8-5.3,6.8-5.3c0.5,0,0.9,0.1,1.3,0.2v4.2
		c-0.5-0.1-0.9-0.2-1.5-0.2c-3.1,0-5.3,2.4-5.9,5.7c-0.1,0.6-0.2,1.3-0.2,2.1v13h-4.4V387z"/>
	<path class="st4" d="M-1347.7,399.3c1.3,0.9,3.6,1.8,5.8,1.8c3.2,0,4.7-1.6,4.7-3.6c0-2.1-1.3-3.3-4.5-4.5c-4.4-1.6-6.5-4-6.5-6.9
		c0-3.9,3.2-7.2,8.4-7.2c2.5,0,4.6,0.7,6,1.5l-1.1,3.2c-1-0.6-2.7-1.4-5-1.4c-2.6,0-4.1,1.5-4.1,3.3c0,2,1.5,2.9,4.6,4.1
		c4.2,1.6,6.4,3.7,6.4,7.4c0,4.3-3.3,7.3-9.1,7.3c-2.7,0-5.1-0.7-6.9-1.7L-1347.7,399.3z"/>
	<path class="st4" d="M-1319.7,372.5c0.1,1.5-1.1,2.7-2.8,2.7c-1.6,0-2.7-1.2-2.7-2.7c0-1.6,1.2-2.8,2.8-2.8
		C-1320.8,369.8-1319.7,371-1319.7,372.5z M-1324.6,403.8v-24.4h4.4v24.4H-1324.6z"/>
	<path class="st4" d="M-1305,372.4v7h6.4v3.4h-6.4v13.2c0,3,0.9,4.7,3.3,4.7c1.2,0,2-0.2,2.6-0.3l0.2,3.3c-0.9,0.4-2.2,0.6-3.9,0.6
		c-2.1,0-3.7-0.7-4.8-1.9c-1.3-1.3-1.7-3.5-1.7-6.4v-13.3h-3.8v-3.4h3.8v-5.8L-1305,372.4z"/>
	<path class="st4" d="M-1264.4,403.8l-0.4-3.1h-0.2c-1.4,1.9-4,3.6-7.5,3.6c-4.9,0-7.5-3.5-7.5-7c0-5.9,5.2-9.1,14.7-9.1v-0.5
		c0-2-0.6-5.6-5.5-5.6c-2.3,0-4.6,0.7-6.4,1.8l-1-2.9c2-1.3,4.9-2.2,8-2.2c7.5,0,9.3,5.1,9.3,10v9.1c0,2.1,0.1,4.2,0.4,5.8H-1264.4z
		 M-1265.1,391.3c-4.8-0.1-10.3,0.8-10.3,5.5c0,2.9,1.9,4.2,4.2,4.2c3.2,0,5.2-2,5.9-4.1c0.2-0.5,0.3-1,0.3-1.4V391.3z"/>
	<path class="st4" d="M-1251.1,386c0-2.5-0.1-4.6-0.2-6.6h3.9l0.2,3.9h0.2c1.4-2.3,3.6-4.5,7.7-4.5c3.3,0,5.8,2,6.9,4.9h0.1
		c0.8-1.4,1.7-2.4,2.7-3.2c1.5-1.1,3.1-1.7,5.4-1.7c3.2,0,8,2.1,8,10.6v14.4h-4.3V390c0-4.7-1.7-7.5-5.3-7.5c-2.5,0-4.5,1.9-5.2,4
		c-0.2,0.6-0.4,1.4-0.4,2.2v15.1h-4.3v-14.6c0-3.9-1.7-6.7-5.1-6.7c-2.8,0-4.8,2.2-5.5,4.4c-0.3,0.7-0.4,1.4-0.4,2.2v14.7h-4.3V386z
		"/>
	<path class="st4" d="M-1204.1,392.4c0.1,6,3.9,8.5,8.4,8.5c3.2,0,5.1-0.6,6.8-1.3l0.8,3.2c-1.6,0.7-4.2,1.5-8.1,1.5
		c-7.5,0-12-4.9-12-12.3c0-7.4,4.3-13.2,11.4-13.2c8,0,10.1,7,10.1,11.5c0,0.9-0.1,1.6-0.2,2.1H-1204.1z M-1191.1,389.2
		c0.1-2.8-1.2-7.2-6.1-7.2c-4.5,0-6.5,4.1-6.8,7.2H-1191.1z"/>
	<path class="st4" d="M-1173.5,372.4v7h6.4v3.4h-6.4v13.2c0,3,0.9,4.7,3.3,4.7c1.2,0,2-0.2,2.6-0.3l0.2,3.3
		c-0.9,0.4-2.2,0.6-3.9,0.6c-2.1,0-3.7-0.7-4.8-1.9c-1.3-1.3-1.7-3.5-1.7-6.4v-13.3h-3.8v-3.4h3.8v-5.8L-1173.5,372.4z"/>
	<path class="st4" d="M-1162.6,410c1.1-3,2.5-8.4,3-12l4.9-0.5c-1.2,4.3-3.4,9.9-4.8,12.2L-1162.6,410z"/>
	<path class="st4" d="M-1783.5,463.4c-1.2,0.6-3.7,1.4-7,1.4c-7.4,0-12.1-5-12.1-12.4c0-7.5,5.1-13,13.1-13c2.6,0,4.9,0.7,6.1,1.3
		l-1,3.4c-1.1-0.6-2.7-1.2-5.1-1.2c-5.6,0-8.6,4.1-8.6,9.2c0,5.6,3.6,9.1,8.5,9.1c2.5,0,4.2-0.7,5.4-1.2L-1783.5,463.4z"/>
	<path class="st4" d="M-1754,451.9c0,9-6.2,13-12.1,13c-6.6,0-11.7-4.8-11.7-12.5c0-8.2,5.3-13,12.1-13
		C-1758.7,439.3-1754,444.4-1754,451.9z M-1773.3,452.1c0,5.3,3.1,9.4,7.4,9.4c4.2,0,7.4-4,7.4-9.5c0-4.1-2.1-9.4-7.3-9.4
		C-1771.1,442.6-1773.3,447.5-1773.3,452.1z"/>
	<path class="st4" d="M-1745.9,446.5c0-2.5-0.1-4.6-0.2-6.6h3.9l0.3,4h0.1c1.2-2.3,4-4.6,8.1-4.6c3.4,0,8.6,2,8.6,10.4v14.6h-4.4
		v-14.1c0-3.9-1.5-7.2-5.6-7.2c-2.9,0-5.2,2.1-5.9,4.5c-0.2,0.6-0.3,1.3-0.3,2.1v14.7h-4.4V446.5z"/>
	<path class="st4" d="M-1716,459.7c1.3,0.9,3.6,1.8,5.8,1.8c3.2,0,4.7-1.6,4.7-3.6c0-2.1-1.3-3.3-4.5-4.5c-4.4-1.6-6.5-4-6.5-6.9
		c0-3.9,3.2-7.2,8.4-7.2c2.5,0,4.6,0.7,6,1.5l-1.1,3.2c-1-0.6-2.7-1.4-5-1.4c-2.6,0-4.1,1.5-4.1,3.3c0,2,1.5,2.9,4.6,4.1
		c4.2,1.6,6.4,3.7,6.4,7.4c0,4.3-3.3,7.3-9.1,7.3c-2.7,0-5.1-0.7-6.9-1.7L-1716,459.7z"/>
	<path class="st4" d="M-1690.4,452.9c0.1,6,3.9,8.5,8.4,8.5c3.2,0,5.1-0.6,6.8-1.3l0.8,3.2c-1.6,0.7-4.2,1.5-8.1,1.5
		c-7.5,0-12-4.9-12-12.3s4.3-13.2,11.4-13.2c8,0,10.1,7,10.1,11.5c0,0.9-0.1,1.6-0.2,2.1H-1690.4z M-1677.4,449.7
		c0.1-2.8-1.2-7.2-6.1-7.2c-4.5,0-6.5,4.1-6.8,7.2H-1677.4z"/>
	<path class="st4" d="M-1647.8,463.4c-1.2,0.6-3.7,1.4-7,1.4c-7.4,0-12.1-5-12.1-12.4c0-7.5,5.1-13,13.1-13c2.6,0,4.9,0.7,6.1,1.3
		l-1,3.4c-1.1-0.6-2.7-1.2-5.1-1.2c-5.6,0-8.6,4.1-8.6,9.2c0,5.6,3.6,9.1,8.5,9.1c2.5,0,4.2-0.7,5.4-1.2L-1647.8,463.4z"/>
	<path class="st4" d="M-1634,432.9v7h6.4v3.4h-6.4v13.2c0,3,0.9,4.7,3.3,4.7c1.2,0,2-0.2,2.6-0.3l0.2,3.3c-0.9,0.4-2.2,0.6-3.9,0.6
		c-2.1,0-3.7-0.7-4.8-1.9c-1.3-1.3-1.7-3.5-1.7-6.4v-13.3h-3.8v-3.4h3.8V434L-1634,432.9z"/>
	<path class="st4" d="M-1618,452.9c0.1,6,3.9,8.5,8.4,8.5c3.2,0,5.1-0.6,6.8-1.3l0.8,3.2c-1.6,0.7-4.2,1.5-8.1,1.5
		c-7.5,0-12-4.9-12-12.3s4.3-13.2,11.4-13.2c8,0,10.1,7,10.1,11.5c0,0.9-0.1,1.6-0.2,2.1H-1618z M-1605,449.7
		c0.1-2.8-1.2-7.2-6.1-7.2c-4.5,0-6.5,4.1-6.8,7.2H-1605z"/>
	<path class="st4" d="M-1587.4,432.9v7h6.4v3.4h-6.4v13.2c0,3,0.9,4.7,3.3,4.7c1.2,0,2-0.2,2.6-0.3l0.2,3.3
		c-0.9,0.4-2.2,0.6-3.9,0.6c-2.1,0-3.7-0.7-4.8-1.9c-1.3-1.3-1.7-3.5-1.7-6.4v-13.3h-3.8v-3.4h3.8V434L-1587.4,432.9z"/>
	<path class="st4" d="M-1553.1,457.6c0,2.5,0.1,4.7,0.2,6.7h-3.9l-0.3-4h-0.1c-1.2,2-3.7,4.5-8.1,4.5c-3.8,0-8.4-2.1-8.4-10.7v-14.3
		h4.4v13.5c0,4.6,1.4,7.8,5.4,7.8c3,0,5-2.1,5.8-4c0.3-0.7,0.4-1.5,0.4-2.3v-15h4.4V457.6z"/>
	<path class="st4" d="M-1543.2,447.5c0-2.9-0.1-5.3-0.2-7.6h3.9l0.2,4.8h0.2c1.1-3.3,3.8-5.3,6.8-5.3c0.5,0,0.9,0.1,1.3,0.2v4.2
		c-0.5-0.1-0.9-0.2-1.5-0.2c-3.1,0-5.3,2.4-5.9,5.7c-0.1,0.6-0.2,1.3-0.2,2.1v13h-4.4V447.5z"/>
	<path class="st4" d="M-1497.5,464.3l-0.4-3.1h-0.2c-1.4,1.9-4,3.6-7.5,3.6c-4.9,0-7.5-3.5-7.5-7c0-5.9,5.2-9.1,14.7-9.1v-0.5
		c0-2-0.6-5.6-5.5-5.6c-2.3,0-4.6,0.7-6.4,1.8l-1-2.9c2-1.3,4.9-2.2,8-2.2c7.5,0,9.3,5.1,9.3,10v9.1c0,2.1,0.1,4.2,0.4,5.8H-1497.5z
		 M-1498.2,451.8c-4.8-0.1-10.3,0.8-10.3,5.5c0,2.9,1.9,4.2,4.2,4.2c3.2,0,5.2-2,5.9-4.1c0.2-0.5,0.3-1,0.3-1.4V451.8z"/>
	<path class="st4" d="M-1463.2,428.5V458c0,2.2,0.1,4.6,0.2,6.3h-4l-0.2-4.2h-0.1c-1.4,2.7-4.3,4.8-8.3,4.8c-5.9,0-10.4-5-10.4-12.4
		c-0.1-8.1,5-13.1,10.9-13.1c3.7,0,6.2,1.8,7.4,3.7h0.1v-14.6H-1463.2z M-1467.6,449.8c0-0.6-0.1-1.3-0.2-1.9
		c-0.7-2.8-3.1-5.1-6.4-5.1c-4.6,0-7.3,4-7.3,9.4c0,4.9,2.4,9,7.2,9c3,0,5.7-2,6.5-5.3c0.2-0.6,0.2-1.2,0.2-1.9V449.8z"/>
	<path class="st4" d="M-1448.4,433c0.1,1.5-1.1,2.7-2.8,2.7c-1.6,0-2.7-1.2-2.7-2.7c0-1.6,1.2-2.8,2.8-2.8
		C-1449.4,430.2-1448.4,431.5-1448.4,433z M-1453.3,464.3v-24.4h4.4v24.4H-1453.3z"/>
	<path class="st4" d="M-1439,447.8c0-3.1-0.1-5.6-0.2-8h4l0.2,4.2h0.1c1.8-3,4.7-4.7,8.7-4.7c5.9,0,10.3,5,10.3,12.4
		c0,8.8-5.3,13.1-11.1,13.1c-3.2,0-6-1.4-7.5-3.8h-0.1v13.3h-4.4V447.8z M-1434.6,454.3c0,0.7,0.1,1.3,0.2,1.8
		c0.8,3.1,3.5,5.2,6.7,5.2c4.7,0,7.4-3.8,7.4-9.4c0-4.9-2.6-9.1-7.3-9.1c-3,0-5.8,2.2-6.7,5.5c-0.2,0.6-0.3,1.2-0.3,1.8V454.3z"/>
	<path class="st4" d="M-1402.8,433c0.1,1.5-1.1,2.7-2.8,2.7c-1.6,0-2.7-1.2-2.7-2.7c0-1.6,1.2-2.8,2.8-2.8
		C-1403.9,430.2-1402.8,431.5-1402.8,433z M-1407.8,464.3v-24.4h4.4v24.4H-1407.8z"/>
	<path class="st4" d="M-1394.1,459.7c1.3,0.9,3.6,1.8,5.8,1.8c3.2,0,4.7-1.6,4.7-3.6c0-2.1-1.3-3.3-4.5-4.5c-4.4-1.6-6.5-4-6.5-6.9
		c0-3.9,3.2-7.2,8.4-7.2c2.5,0,4.6,0.7,6,1.5l-1.1,3.2c-1-0.6-2.7-1.4-5-1.4c-2.6,0-4.1,1.5-4.1,3.3c0,2,1.5,2.9,4.6,4.1
		c4.2,1.6,6.4,3.7,6.4,7.4c0,4.3-3.3,7.3-9.1,7.3c-2.7,0-5.1-0.7-6.9-1.7L-1394.1,459.7z"/>
	<path class="st4" d="M-1353.6,463.4c-1.2,0.6-3.7,1.4-7,1.4c-7.4,0-12.1-5-12.1-12.4c0-7.5,5.1-13,13.1-13c2.6,0,4.9,0.7,6.1,1.3
		l-1,3.4c-1.1-0.6-2.7-1.2-5.1-1.2c-5.6,0-8.6,4.1-8.6,9.2c0,5.6,3.6,9.1,8.5,9.1c2.5,0,4.2-0.7,5.4-1.2L-1353.6,463.4z"/>
	<path class="st4" d="M-1341,433c0.1,1.5-1.1,2.7-2.8,2.7c-1.6,0-2.7-1.2-2.7-2.7c0-1.6,1.2-2.8,2.8-2.8
		C-1342,430.2-1341,431.5-1341,433z M-1345.9,464.3v-24.4h4.4v24.4H-1345.9z"/>
	<path class="st4" d="M-1331.6,446.5c0-2.5-0.1-4.6-0.2-6.6h3.9l0.3,4h0.1c1.2-2.3,4-4.6,8.1-4.6c3.4,0,8.6,2,8.6,10.4v14.6h-4.4
		v-14.1c0-3.9-1.5-7.2-5.6-7.2c-2.9,0-5.2,2.1-5.9,4.5c-0.2,0.6-0.3,1.3-0.3,2.1v14.7h-4.4V446.5z"/>
	<path class="st4" d="M-1280.1,439.9c-0.1,1.8-0.2,3.7-0.2,6.7v14.2c0,5.6-1.1,9-3.5,11.1c-2.4,2.2-5.8,2.9-8.9,2.9
		c-2.9,0-6.1-0.7-8.1-2l1.1-3.4c1.6,1,4.1,1.9,7.2,1.9c4.5,0,7.9-2.4,7.9-8.5v-2.7h-0.1c-1.4,2.3-4,4.1-7.8,4.1
		c-6,0-10.4-5.1-10.4-11.9c0-8.3,5.4-13,11-13c4.2,0,6.6,2.2,7.6,4.2h0.1l0.2-3.7H-1280.1z M-1284.7,449.5c0-0.8-0.1-1.4-0.3-2
		c-0.8-2.6-3-4.7-6.2-4.7c-4.2,0-7.3,3.6-7.3,9.2c0,4.8,2.4,8.8,7.2,8.8c2.7,0,5.2-1.7,6.1-4.5c0.3-0.8,0.4-1.6,0.4-2.4V449.5z"/>
	<path class="st4" d="M-1254.7,452.9c0.1,6,3.9,8.5,8.4,8.5c3.2,0,5.1-0.6,6.8-1.3l0.8,3.2c-1.6,0.7-4.2,1.5-8.1,1.5
		c-7.5,0-12-4.9-12-12.3s4.3-13.2,11.4-13.2c8,0,10.1,7,10.1,11.5c0,0.9-0.1,1.6-0.2,2.1H-1254.7z M-1241.7,449.7
		c0.1-2.8-1.2-7.2-6.1-7.2c-4.5,0-6.5,4.1-6.8,7.2H-1241.7z"/>
	<path class="st4" d="M-1229.4,428.5h4.4v35.8h-4.4V428.5z"/>
	<path class="st4" d="M-1210.1,433c0.1,1.5-1.1,2.7-2.8,2.7c-1.6,0-2.7-1.2-2.7-2.7c0-1.6,1.2-2.8,2.8-2.8
		C-1211.2,430.2-1210.1,431.5-1210.1,433z M-1215,464.3v-24.4h4.4v24.4H-1215z"/>
	<path class="st4" d="M-1195.4,432.9v7h6.4v3.4h-6.4v13.2c0,3,0.9,4.7,3.3,4.7c1.2,0,2-0.2,2.6-0.3l0.2,3.3
		c-0.9,0.4-2.2,0.6-3.9,0.6c-2.1,0-3.7-0.7-4.8-1.9c-1.3-1.3-1.7-3.5-1.7-6.4v-13.3h-3.8v-3.4h3.8V434L-1195.4,432.9z"/>
	<path class="st4" d="M-1184.5,470.5c1.1-3,2.5-8.4,3-12l4.9-0.5c-1.2,4.3-3.4,9.9-4.8,12.2L-1184.5,470.5z"/>
	<path class="st4" d="M-1156.1,459.7c1.3,0.9,3.6,1.8,5.8,1.8c3.2,0,4.7-1.6,4.7-3.6c0-2.1-1.3-3.3-4.5-4.5c-4.4-1.6-6.5-4-6.5-6.9
		c0-3.9,3.2-7.2,8.4-7.2c2.5,0,4.6,0.7,6,1.5l-1.1,3.2c-1-0.6-2.7-1.4-5-1.4c-2.6,0-4.1,1.5-4.1,3.3c0,2,1.5,2.9,4.6,4.1
		c4.2,1.6,6.4,3.7,6.4,7.4c0,4.3-3.3,7.3-9.1,7.3c-2.7,0-5.1-0.7-6.9-1.7L-1156.1,459.7z"/>
	<path class="st4" d="M-1130.6,452.9c0.1,6,3.9,8.5,8.4,8.5c3.2,0,5.1-0.6,6.8-1.3l0.8,3.2c-1.6,0.7-4.2,1.5-8.1,1.5
		c-7.5,0-12-4.9-12-12.3s4.3-13.2,11.4-13.2c8,0,10.1,7,10.1,11.5c0,0.9-0.1,1.6-0.2,2.1H-1130.6z M-1117.6,449.7
		c0.1-2.8-1.2-7.2-6.1-7.2c-4.5,0-6.5,4.1-6.8,7.2H-1117.6z"/>
	<path class="st4" d="M-1084.2,428.5V458c0,2.2,0.1,4.6,0.2,6.3h-4l-0.2-4.2h-0.1c-1.4,2.7-4.3,4.8-8.3,4.8c-5.9,0-10.4-5-10.4-12.4
		c-0.1-8.1,5-13.1,10.9-13.1c3.7,0,6.2,1.8,7.4,3.7h0.1v-14.6H-1084.2z M-1088.6,449.8c0-0.6-0.1-1.3-0.2-1.9
		c-0.7-2.8-3.1-5.1-6.4-5.1c-4.6,0-7.3,4-7.3,9.4c0,4.9,2.4,9,7.2,9c3,0,5.7-2,6.5-5.3c0.2-0.6,0.2-1.2,0.2-1.9V449.8z"/>
	<path class="st4" d="M-1040.1,428.5V458c0,2.2,0.1,4.6,0.2,6.3h-4l-0.2-4.2h-0.1c-1.4,2.7-4.3,4.8-8.3,4.8c-5.9,0-10.4-5-10.4-12.4
		c-0.1-8.1,5-13.1,10.9-13.1c3.7,0,6.2,1.8,7.4,3.7h0.1v-14.6H-1040.1z M-1044.5,449.8c0-0.6-0.1-1.3-0.2-1.9
		c-0.7-2.8-3.1-5.1-6.4-5.1c-4.6,0-7.3,4-7.3,9.4c0,4.9,2.4,9,7.2,9c3,0,5.7-2,6.5-5.3c0.2-0.6,0.2-1.2,0.2-1.9V449.8z"/>
	<path class="st4" d="M-1008.1,451.9c0,9-6.2,13-12.1,13c-6.6,0-11.7-4.8-11.7-12.5c0-8.2,5.3-13,12.1-13
		C-1012.9,439.3-1008.1,444.4-1008.1,451.9z M-1027.5,452.1c0,5.3,3.1,9.4,7.4,9.4c4.2,0,7.4-4,7.4-9.5c0-4.1-2.1-9.4-7.3-9.4
		C-1025.2,442.6-1027.5,447.5-1027.5,452.1z"/>
	<path class="st4" d="M-1798.4,513.3c0.1,6,3.9,8.5,8.4,8.5c3.2,0,5.1-0.6,6.8-1.3l0.8,3.2c-1.6,0.7-4.2,1.5-8.1,1.5
		c-7.5,0-12-4.9-12-12.3c0-7.4,4.3-13.2,11.4-13.2c8,0,10.1,7,10.1,11.5c0,0.9-0.1,1.6-0.2,2.1H-1798.4z M-1785.4,510.2
		c0.1-2.8-1.2-7.2-6.1-7.2c-4.5,0-6.5,4.1-6.8,7.2H-1785.4z"/>
	<path class="st4" d="M-1768.1,493.5c0.1,1.5-1.1,2.7-2.8,2.7c-1.6,0-2.7-1.2-2.7-2.7c0-1.6,1.2-2.8,2.8-2.8
		C-1769.2,490.7-1768.1,491.9-1768.1,493.5z M-1773.1,524.7v-24.4h4.4v24.4H-1773.1z"/>
	<path class="st4" d="M-1738.4,518.1c0,2.5,0.1,4.7,0.2,6.7h-3.9l-0.3-4h-0.1c-1.2,2-3.7,4.5-8.1,4.5c-3.8,0-8.4-2.1-8.4-10.7v-14.3
		h4.4v13.5c0,4.6,1.4,7.8,5.4,7.8c3,0,5-2.1,5.8-4c0.3-0.7,0.4-1.5,0.4-2.3v-15h4.4V518.1z"/>
	<path class="st4" d="M-1729.1,520.2c1.3,0.9,3.6,1.8,5.8,1.8c3.2,0,4.7-1.6,4.7-3.6c0-2.1-1.3-3.3-4.5-4.5c-4.4-1.6-6.5-4-6.5-6.9
		c0-3.9,3.2-7.2,8.4-7.2c2.5,0,4.6,0.7,6,1.5l-1.1,3.2c-1-0.6-2.7-1.4-5-1.4c-2.6,0-4.1,1.5-4.1,3.3c0,2,1.5,2.9,4.6,4.1
		c4.2,1.6,6.4,3.7,6.4,7.4c0,4.3-3.3,7.3-9.1,7.3c-2.7,0-5.1-0.7-6.9-1.7L-1729.1,520.2z"/>
	<path class="st4" d="M-1706,506.9c0-2.5-0.1-4.6-0.2-6.6h3.9l0.2,3.9h0.2c1.4-2.3,3.6-4.5,7.7-4.5c3.3,0,5.8,2,6.9,4.9h0.1
		c0.8-1.4,1.7-2.4,2.7-3.2c1.5-1.1,3.1-1.7,5.4-1.7c3.2,0,8,2.1,8,10.6v14.4h-4.3v-13.8c0-4.7-1.7-7.5-5.3-7.5c-2.5,0-4.5,1.9-5.2,4
		c-0.2,0.6-0.4,1.4-0.4,2.2v15.1h-4.3v-14.6c0-3.9-1.7-6.7-5.1-6.7c-2.8,0-4.8,2.2-5.5,4.4c-0.3,0.7-0.4,1.4-0.4,2.2v14.7h-4.3
		V506.9z"/>
	<path class="st4" d="M-1639.4,512.3c0,9-6.2,13-12.1,13c-6.6,0-11.7-4.8-11.7-12.5c0-8.2,5.3-13,12.1-13
		C-1644.1,499.8-1639.4,504.9-1639.4,512.3z M-1658.7,512.6c0,5.3,3.1,9.4,7.4,9.4c4.2,0,7.4-4,7.4-9.5c0-4.1-2.1-9.4-7.3-9.4
		C-1656.5,503.1-1658.7,508-1658.7,512.6z"/>
	<path class="st4" d="M-1610.2,489v29.5c0,2.2,0.1,4.6,0.2,6.3h-4l-0.2-4.2h-0.1c-1.4,2.7-4.3,4.8-8.3,4.8c-5.9,0-10.4-5-10.4-12.4
		c-0.1-8.1,5-13.1,10.9-13.1c3.7,0,6.2,1.8,7.4,3.7h0.1V489H-1610.2z M-1614.6,510.3c0-0.6-0.1-1.3-0.2-1.9
		c-0.7-2.8-3.1-5.1-6.4-5.1c-4.6,0-7.3,4-7.3,9.4c0,4.9,2.4,9,7.2,9c3,0,5.7-2,6.5-5.3c0.2-0.6,0.2-1.2,0.2-1.9V510.3z"/>
	<path class="st4" d="M-1581.8,493.3v7h6.4v3.4h-6.4v13.2c0,3,0.9,4.7,3.3,4.7c1.2,0,2-0.2,2.6-0.3l0.2,3.3
		c-0.9,0.4-2.2,0.6-3.9,0.6c-2.1,0-3.7-0.7-4.8-1.9c-1.3-1.3-1.7-3.5-1.7-6.4v-13.3h-3.8v-3.4h3.8v-5.8L-1581.8,493.3z"/>
	<path class="st4" d="M-1565.8,513.3c0.1,6,3.9,8.5,8.4,8.5c3.2,0,5.1-0.6,6.8-1.3l0.8,3.2c-1.6,0.7-4.2,1.5-8.1,1.5
		c-7.5,0-12-4.9-12-12.3c0-7.4,4.3-13.2,11.4-13.2c8,0,10.1,7,10.1,11.5c0,0.9-0.1,1.6-0.2,2.1H-1565.8z M-1552.8,510.2
		c0.1-2.8-1.2-7.2-6.1-7.2c-4.5,0-6.5,4.1-6.8,7.2H-1552.8z"/>
	<path class="st4" d="M-1540.5,506.9c0-2.5-0.1-4.6-0.2-6.6h3.9l0.2,3.9h0.2c1.4-2.3,3.6-4.5,7.7-4.5c3.3,0,5.8,2,6.9,4.9h0.1
		c0.8-1.4,1.7-2.4,2.7-3.2c1.5-1.1,3.1-1.7,5.4-1.7c3.2,0,8,2.1,8,10.6v14.4h-4.3v-13.8c0-4.7-1.7-7.5-5.3-7.5c-2.5,0-4.5,1.9-5.2,4
		c-0.2,0.6-0.4,1.4-0.4,2.2v15.1h-4.3v-14.6c0-3.9-1.7-6.7-5.1-6.7c-2.8,0-4.8,2.2-5.5,4.4c-0.3,0.7-0.4,1.4-0.4,2.2v14.7h-4.3
		V506.9z"/>
	<path class="st4" d="M-1495.9,508.3c0-3.1-0.1-5.6-0.2-8h4l0.2,4.2h0.1c1.8-3,4.7-4.7,8.7-4.7c5.9,0,10.3,5,10.3,12.4
		c0,8.8-5.3,13.1-11.1,13.1c-3.2,0-6-1.4-7.5-3.8h-0.1v13.3h-4.4V508.3z M-1491.5,514.8c0,0.7,0.1,1.3,0.2,1.8
		c0.8,3.1,3.5,5.2,6.7,5.2c4.7,0,7.4-3.8,7.4-9.4c0-4.9-2.6-9.1-7.3-9.1c-3,0-5.8,2.2-6.7,5.5c-0.2,0.6-0.3,1.2-0.3,1.8V514.8z"/>
	<path class="st4" d="M-1442.7,512.3c0,9-6.2,13-12.1,13c-6.6,0-11.7-4.8-11.7-12.5c0-8.2,5.3-13,12.1-13
		C-1447.4,499.8-1442.7,504.9-1442.7,512.3z M-1462,512.6c0,5.3,3.1,9.4,7.4,9.4c4.2,0,7.4-4,7.4-9.5c0-4.1-2.1-9.4-7.3-9.4
		C-1459.7,503.1-1462,508-1462,512.6z"/>
	<path class="st4" d="M-1434.5,508c0-2.9-0.1-5.3-0.2-7.6h3.9l0.2,4.8h0.2c1.1-3.3,3.8-5.3,6.8-5.3c0.5,0,0.9,0.1,1.3,0.2v4.2
		c-0.5-0.1-0.9-0.2-1.5-0.2c-3.1,0-5.3,2.4-5.9,5.7c-0.1,0.6-0.2,1.3-0.2,2.1v13h-4.4V508z"/>
	<path class="st4" d="M-1397.4,493.5c0.1,1.5-1.1,2.7-2.8,2.7c-1.6,0-2.7-1.2-2.7-2.7c0-1.6,1.2-2.8,2.8-2.8
		C-1398.5,490.7-1397.4,491.9-1397.4,493.5z M-1402.3,524.7v-24.4h4.4v24.4H-1402.3z"/>
	<path class="st4" d="M-1388,506.9c0-2.5-0.1-4.6-0.2-6.6h3.9l0.3,4h0.1c1.2-2.3,4-4.6,8.1-4.6c3.4,0,8.6,2,8.6,10.4v14.6h-4.4
		v-14.1c0-3.9-1.5-7.2-5.6-7.2c-2.9,0-5.2,2.1-5.9,4.5c-0.2,0.6-0.3,1.3-0.3,2.1v14.7h-4.4V506.9z"/>
	<path class="st4" d="M-1340.2,523.8c-1.2,0.6-3.7,1.4-7,1.4c-7.4,0-12.1-5-12.1-12.4c0-7.5,5.1-13,13.1-13c2.6,0,4.9,0.7,6.1,1.3
		l-1,3.4c-1.1-0.6-2.7-1.2-5.1-1.2c-5.6,0-8.6,4.1-8.6,9.2c0,5.6,3.6,9.1,8.5,9.1c2.5,0,4.2-0.7,5.4-1.2L-1340.2,523.8z"/>
	<path class="st4" d="M-1327.5,493.5c0.1,1.5-1.1,2.7-2.8,2.7c-1.6,0-2.7-1.2-2.7-2.7c0-1.6,1.2-2.8,2.8-2.8
		C-1328.6,490.7-1327.5,491.9-1327.5,493.5z M-1332.4,524.7v-24.4h4.4v24.4H-1332.4z"/>
	<path class="st4" d="M-1297.1,489v29.5c0,2.2,0.1,4.6,0.2,6.3h-4l-0.2-4.2h-0.1c-1.4,2.7-4.3,4.8-8.3,4.8c-5.9,0-10.4-5-10.4-12.4
		c-0.1-8.1,5-13.1,10.9-13.1c3.7,0,6.2,1.8,7.4,3.7h0.1V489H-1297.1z M-1301.5,510.3c0-0.6-0.1-1.3-0.2-1.9
		c-0.7-2.8-3.1-5.1-6.4-5.1c-4.6,0-7.3,4-7.3,9.4c0,4.9,2.4,9,7.2,9c3,0,5.7-2,6.5-5.3c0.2-0.6,0.2-1.2,0.2-1.9V510.3z"/>
	<path class="st4" d="M-1282.3,493.5c0.1,1.5-1.1,2.7-2.8,2.7c-1.6,0-2.7-1.2-2.7-2.7c0-1.6,1.2-2.8,2.8-2.8
		C-1283.3,490.7-1282.3,491.9-1282.3,493.5z M-1287.2,524.7v-24.4h4.4v24.4H-1287.2z"/>
	<path class="st4" d="M-1251.8,489v29.5c0,2.2,0.1,4.6,0.2,6.3h-4l-0.2-4.2h-0.1c-1.4,2.7-4.3,4.8-8.3,4.8c-5.9,0-10.4-5-10.4-12.4
		c-0.1-8.1,5-13.1,10.9-13.1c3.7,0,6.2,1.8,7.4,3.7h0.1V489H-1251.8z M-1256.2,510.3c0-0.6-0.1-1.3-0.2-1.9
		c-0.7-2.8-3.1-5.1-6.4-5.1c-4.6,0-7.3,4-7.3,9.4c0,4.9,2.4,9,7.2,9c3,0,5.7-2,6.5-5.3c0.2-0.6,0.2-1.2,0.2-1.9V510.3z"/>
	<path class="st4" d="M-1221.5,518.1c0,2.5,0.1,4.7,0.2,6.7h-3.9l-0.3-4h-0.1c-1.2,2-3.7,4.5-8.1,4.5c-3.8,0-8.4-2.1-8.4-10.7v-14.3
		h4.4v13.5c0,4.6,1.4,7.8,5.4,7.8c3,0,5-2.1,5.8-4c0.3-0.7,0.4-1.5,0.4-2.3v-15h4.4V518.1z"/>
	<path class="st4" d="M-1211.7,506.9c0-2.5-0.1-4.6-0.2-6.6h3.9l0.3,4h0.1c1.2-2.3,4-4.6,8.1-4.6c3.4,0,8.6,2,8.6,10.4v14.6h-4.4
		v-14.1c0-3.9-1.5-7.2-5.6-7.2c-2.9,0-5.2,2.1-5.9,4.5c-0.2,0.6-0.3,1.3-0.3,2.1v14.7h-4.4V506.9z"/>
	<path class="st4" d="M-1176,493.3v7h6.4v3.4h-6.4v13.2c0,3,0.9,4.7,3.3,4.7c1.2,0,2-0.2,2.6-0.3l0.2,3.3c-0.9,0.4-2.2,0.6-3.9,0.6
		c-2.1,0-3.7-0.7-4.8-1.9c-1.3-1.3-1.7-3.5-1.7-6.4v-13.3h-3.8v-3.4h3.8v-5.8L-1176,493.3z"/>
	<path class="st4" d="M-1128.6,518.1c0,2.5,0.1,4.7,0.2,6.7h-3.9l-0.3-4h-0.1c-1.2,2-3.7,4.5-8.1,4.5c-3.8,0-8.4-2.1-8.4-10.7v-14.3
		h4.4v13.5c0,4.6,1.4,7.8,5.4,7.8c3,0,5-2.1,5.8-4c0.3-0.7,0.4-1.5,0.4-2.3v-15h4.4V518.1z"/>
	<path class="st4" d="M-1113.3,493.3v7h6.4v3.4h-6.4v13.2c0,3,0.9,4.7,3.3,4.7c1.2,0,2-0.2,2.6-0.3l0.2,3.3
		c-0.9,0.4-2.2,0.6-3.9,0.6c-2.1,0-3.7-0.7-4.8-1.9c-1.3-1.3-1.7-3.5-1.7-6.4v-13.3h-3.8v-3.4h3.8v-5.8L-1113.3,493.3z"/>
	<path class="st4" d="M-1086.3,489h4.4v35.8h-4.4V489z"/>
	<path class="st4" d="M-1058.4,524.7l-0.4-3.1h-0.2c-1.4,1.9-4,3.6-7.5,3.6c-4.9,0-7.5-3.5-7.5-7c0-5.9,5.2-9.1,14.7-9.1v-0.5
		c0-2-0.6-5.6-5.5-5.6c-2.3,0-4.6,0.7-6.4,1.8l-1-2.9c2-1.3,4.9-2.2,8-2.2c7.5,0,9.3,5.1,9.3,10v9.1c0,2.1,0.1,4.2,0.4,5.8H-1058.4z
		 M-1059,512.3c-4.8-0.1-10.3,0.8-10.3,5.5c0,2.9,1.9,4.2,4.2,4.2c3.2,0,5.2-2,5.9-4.1c0.2-0.5,0.3-1,0.3-1.4V512.3z"/>
	<path class="st4" d="M-1045.3,524.7c0.1-1.7,0.2-4.1,0.2-6.3V489h4.4v15.3h0.1c1.6-2.7,4.4-4.5,8.3-4.5c6,0,10.3,5,10.3,12.4
		c0,8.7-5.5,13.1-10.9,13.1c-3.5,0-6.4-1.4-8.2-4.6h-0.2l-0.2,4H-1045.3z M-1040.7,515c0,0.6,0.1,1.1,0.2,1.6
		c0.9,3.1,3.4,5.2,6.7,5.2c4.6,0,7.4-3.8,7.4-9.4c0-4.9-2.5-9.1-7.3-9.1c-3,0-5.8,2.1-6.8,5.4c-0.1,0.5-0.3,1.1-0.3,1.8V515z"/>
	<path class="st4" d="M-991.8,512.3c0,9-6.2,13-12.1,13c-6.6,0-11.7-4.8-11.7-12.5c0-8.2,5.3-13,12.1-13
		C-996.5,499.8-991.8,504.9-991.8,512.3z M-1011.1,512.6c0,5.3,3.1,9.4,7.4,9.4c4.2,0,7.4-4,7.4-9.5c0-4.1-2.1-9.4-7.3-9.4
		C-1008.9,503.1-1011.1,508-1011.1,512.6z"/>
	<path class="st4" d="M-983.7,508c0-2.9-0.1-5.3-0.2-7.6h3.9l0.2,4.8h0.2c1.1-3.3,3.8-5.3,6.8-5.3c0.5,0,0.9,0.1,1.3,0.2v4.2
		c-0.5-0.1-0.9-0.2-1.5-0.2c-3.1,0-5.3,2.4-5.9,5.7c-0.1,0.6-0.2,1.3-0.2,2.1v13h-4.4V508z"/>
	<path class="st4" d="M-962.7,513.3c0.1,6,3.9,8.5,8.4,8.5c3.2,0,5.1-0.6,6.8-1.3l0.8,3.2c-1.6,0.7-4.2,1.5-8.1,1.5
		c-7.5,0-12-4.9-12-12.3c0-7.4,4.3-13.2,11.4-13.2c8,0,10.1,7,10.1,11.5c0,0.9-0.1,1.6-0.2,2.1H-962.7z M-949.7,510.2
		c0.1-2.8-1.2-7.2-6.1-7.2c-4.5,0-6.5,4.1-6.8,7.2H-949.7z"/>
	<path class="st4" d="M-1798.4,573.8c0.1,6,3.9,8.5,8.4,8.5c3.2,0,5.1-0.6,6.8-1.3l0.8,3.2c-1.6,0.7-4.2,1.5-8.1,1.5
		c-7.5,0-12-4.9-12-12.3s4.3-13.2,11.4-13.2c8,0,10.1,7,10.1,11.5c0,0.9-0.1,1.6-0.2,2.1H-1798.4z M-1785.4,570.6
		c0.1-2.8-1.2-7.2-6.1-7.2c-4.5,0-6.5,4.1-6.8,7.2H-1785.4z"/>
	<path class="st4" d="M-1767.7,553.8v7h6.4v3.4h-6.4v13.2c0,3,0.9,4.7,3.3,4.7c1.2,0,2-0.2,2.6-0.3l0.2,3.3
		c-0.9,0.4-2.2,0.6-3.9,0.6c-2.1,0-3.7-0.7-4.8-1.9c-1.3-1.3-1.7-3.5-1.7-6.4v-13.3h-3.8v-3.4h3.8V555L-1767.7,553.8z"/>
	<path class="st4" d="M-1719.6,549.4v29.5c0,2.2,0.1,4.6,0.2,6.3h-4l-0.2-4.2h-0.1c-1.4,2.7-4.3,4.8-8.3,4.8
		c-5.9,0-10.4-5-10.4-12.4c-0.1-8.1,5-13.1,10.9-13.1c3.7,0,6.2,1.8,7.4,3.7h0.1v-14.6H-1719.6z M-1724,570.7c0-0.6-0.1-1.3-0.2-1.9
		c-0.7-2.8-3.1-5.1-6.4-5.1c-4.6,0-7.3,4-7.3,9.4c0,4.9,2.4,9,7.2,9c3,0,5.7-2,6.5-5.3c0.2-0.6,0.2-1.2,0.2-1.9V570.7z"/>
	<path class="st4" d="M-1687.7,572.8c0,9-6.2,13-12.1,13c-6.6,0-11.7-4.8-11.7-12.5c0-8.2,5.3-13,12.1-13
		C-1692.4,560.3-1687.7,565.4-1687.7,572.8z M-1707,573.1c0,5.3,3.1,9.4,7.4,9.4c4.2,0,7.4-4,7.4-9.5c0-4.1-2.1-9.4-7.3-9.4
		C-1704.8,563.6-1707,568.4-1707,573.1z"/>
	<path class="st4" d="M-1679.6,549.4h4.4v35.8h-4.4V549.4z"/>
	<path class="st4" d="M-1643.1,572.8c0,9-6.2,13-12.1,13c-6.6,0-11.7-4.8-11.7-12.5c0-8.2,5.3-13,12.1-13
		C-1647.8,560.3-1643.1,565.4-1643.1,572.8z M-1662.4,573.1c0,5.3,3.1,9.4,7.4,9.4c4.2,0,7.4-4,7.4-9.5c0-4.1-2.1-9.4-7.3-9.4
		C-1660.2,563.6-1662.4,568.4-1662.4,573.1z"/>
	<path class="st4" d="M-1635,568.4c0-2.9-0.1-5.3-0.2-7.6h3.9l0.2,4.8h0.2c1.1-3.3,3.8-5.3,6.8-5.3c0.5,0,0.9,0.1,1.3,0.2v4.2
		c-0.5-0.1-0.9-0.2-1.5-0.2c-3.1,0-5.3,2.4-5.9,5.7c-0.1,0.6-0.2,1.3-0.2,2.1v13h-4.4V568.4z"/>
	<path class="st4" d="M-1614,573.8c0.1,6,3.9,8.5,8.4,8.5c3.2,0,5.1-0.6,6.8-1.3l0.8,3.2c-1.6,0.7-4.2,1.5-8.1,1.5
		c-7.5,0-12-4.9-12-12.3s4.3-13.2,11.4-13.2c8,0,10.1,7,10.1,11.5c0,0.9-0.1,1.6-0.2,2.1H-1614z M-1601,570.6
		c0.1-2.8-1.2-7.2-6.1-7.2c-4.5,0-6.5,4.1-6.8,7.2H-1601z"/>
	<path class="st4" d="M-1575.5,567.4c0-2.5-0.1-4.6-0.2-6.6h3.9l0.2,3.9h0.2c1.4-2.3,3.6-4.5,7.7-4.5c3.3,0,5.8,2,6.9,4.9h0.1
		c0.8-1.4,1.7-2.4,2.7-3.2c1.5-1.1,3.1-1.7,5.4-1.7c3.2,0,8,2.1,8,10.6v14.4h-4.3v-13.8c0-4.7-1.7-7.5-5.3-7.5c-2.5,0-4.5,1.9-5.2,4
		c-0.2,0.6-0.4,1.4-0.4,2.2v15.1h-4.3v-14.6c0-3.9-1.7-6.7-5.1-6.7c-2.8,0-4.8,2.2-5.5,4.4c-0.3,0.7-0.4,1.4-0.4,2.2v14.7h-4.3
		V567.4z"/>
	<path class="st4" d="M-1517.4,585.2l-0.4-3.1h-0.2c-1.4,1.9-4,3.6-7.5,3.6c-4.9,0-7.5-3.5-7.5-7c0-5.9,5.2-9.1,14.7-9.1v-0.5
		c0-2-0.6-5.6-5.5-5.6c-2.3,0-4.6,0.7-6.4,1.8l-1-2.9c2-1.3,4.9-2.2,8-2.2c7.5,0,9.3,5.1,9.3,10v9.1c0,2.1,0.1,4.2,0.4,5.8H-1517.4z
		 M-1518.1,572.8c-4.8-0.1-10.3,0.8-10.3,5.5c0,2.9,1.9,4.2,4.2,4.2c3.2,0,5.2-2,5.9-4.1c0.2-0.5,0.3-1,0.3-1.4V572.8z"/>
	<path class="st4" d="M-1483.1,560.8c-0.1,1.8-0.2,3.7-0.2,6.7v14.2c0,5.6-1.1,9-3.5,11.1c-2.4,2.2-5.8,2.9-8.9,2.9
		c-2.9,0-6.1-0.7-8.1-2l1.1-3.4c1.6,1,4.1,1.9,7.2,1.9c4.5,0,7.9-2.4,7.9-8.5V581h-0.1c-1.4,2.3-4,4.1-7.8,4.1
		c-6,0-10.4-5.1-10.4-11.9c0-8.3,5.4-13,11-13c4.2,0,6.6,2.2,7.6,4.2h0.1l0.2-3.7H-1483.1z M-1487.7,570.4c0-0.8-0.1-1.4-0.3-2
		c-0.8-2.6-3-4.7-6.2-4.7c-4.2,0-7.3,3.6-7.3,9.2c0,4.8,2.4,8.8,7.2,8.8c2.7,0,5.2-1.7,6.1-4.5c0.3-0.8,0.4-1.6,0.4-2.4V570.4z"/>
	<path class="st4" d="M-1473.7,567.4c0-2.5-0.1-4.6-0.2-6.6h3.9l0.3,4h0.1c1.2-2.3,4-4.6,8.1-4.6c3.4,0,8.6,2,8.6,10.4v14.6h-4.4
		v-14.1c0-3.9-1.5-7.2-5.6-7.2c-2.9,0-5.2,2.1-5.9,4.5c-0.2,0.6-0.3,1.3-0.3,2.1v14.7h-4.4V567.4z"/>
	<path class="st4" d="M-1429.8,585.2l-0.4-3.1h-0.2c-1.4,1.9-4,3.6-7.5,3.6c-4.9,0-7.5-3.5-7.5-7c0-5.9,5.2-9.1,14.7-9.1v-0.5
		c0-2-0.6-5.6-5.5-5.6c-2.3,0-4.6,0.7-6.4,1.8l-1-2.9c2-1.3,4.9-2.2,8-2.2c7.5,0,9.3,5.1,9.3,10v9.1c0,2.1,0.1,4.2,0.4,5.8H-1429.8z
		 M-1430.4,572.8c-4.8-0.1-10.3,0.8-10.3,5.5c0,2.9,1.9,4.2,4.2,4.2c3.2,0,5.2-2,5.9-4.1c0.2-0.5,0.3-1,0.3-1.4V572.8z"/>
	<path class="st4" d="M-1389.7,585.2l-0.4-3.1h-0.2c-1.4,1.9-4,3.6-7.5,3.6c-4.9,0-7.5-3.5-7.5-7c0-5.9,5.2-9.1,14.7-9.1v-0.5
		c0-2-0.6-5.6-5.5-5.6c-2.3,0-4.6,0.7-6.4,1.8l-1-2.9c2-1.3,4.9-2.2,8-2.2c7.5,0,9.3,5.1,9.3,10v9.1c0,2.1,0.1,4.2,0.4,5.8H-1389.7z
		 M-1390.4,572.8c-4.8-0.1-10.3,0.8-10.3,5.5c0,2.9,1.9,4.2,4.2,4.2c3.2,0,5.2-2,5.9-4.1c0.2-0.5,0.3-1,0.3-1.4V572.8z"/>
	<path class="st4" d="M-1376.4,549.4h4.4v35.8h-4.4V549.4z"/>
	<path class="st4" d="M-1357.1,554c0.1,1.5-1.1,2.7-2.8,2.7c-1.6,0-2.7-1.2-2.7-2.7c0-1.6,1.2-2.8,2.8-2.8
		C-1358.1,551.2-1357.1,552.4-1357.1,554z M-1362,585.2v-24.4h4.4v24.4H-1362z"/>
	<path class="st4" d="M-1331.1,581.4h-0.1c-1.3,2.4-4,4.3-8,4.3c-5.7,0-10.3-4.9-10.3-12.3c0-9.1,5.9-13.2,11-13.2
		c3.8,0,6.3,1.9,7.5,4.2h0.1l0.2-3.7h4.2c-0.1,2.1-0.2,4.2-0.2,6.7v27.7h-4.4V581.4z M-1331.1,570.7c0-0.6-0.1-1.3-0.2-1.9
		c-0.7-2.7-3-5-6.4-5c-4.6,0-7.4,3.9-7.4,9.4c0,4.8,2.3,9.1,7.2,9.1c2.9,0,5.3-1.8,6.4-4.8c0.2-0.6,0.4-1.5,0.4-2.1V570.7z"/>
	<path class="st4" d="M-1296.4,578.6c0,2.5,0.1,4.7,0.2,6.7h-3.9l-0.3-4h-0.1c-1.2,2-3.7,4.5-8.1,4.5c-3.8,0-8.4-2.1-8.4-10.7v-14.3
		h4.4v13.5c0,4.6,1.4,7.8,5.4,7.8c3,0,5-2.1,5.8-4c0.3-0.7,0.4-1.5,0.4-2.3v-15h4.4V578.6z"/>
	<path class="st4" d="M-1273,585.2l-0.4-3.1h-0.2c-1.4,1.9-4,3.6-7.5,3.6c-4.9,0-7.5-3.5-7.5-7c0-5.9,5.2-9.1,14.7-9.1v-0.5
		c0-2-0.6-5.6-5.5-5.6c-2.3,0-4.6,0.7-6.4,1.8l-1-2.9c2-1.3,4.9-2.2,8-2.2c7.5,0,9.3,5.1,9.3,10v9.1c0,2.1,0.1,4.2,0.4,5.8H-1273z
		 M-1273.7,572.8c-4.8-0.1-10.3,0.8-10.3,5.5c0,2.9,1.9,4.2,4.2,4.2c3.2,0,5.2-2,5.9-4.1c0.2-0.5,0.3-1,0.3-1.4V572.8z"/>
	<path class="st4" d="M-1260.8,582.6c0-1.9,1.3-3.2,3-3.2c1.8,0,3,1.3,3,3.2c0,1.8-1.2,3.2-3,3.2
		C-1259.6,585.8-1260.8,584.4-1260.8,582.6z"/>
</g>
<g>
	<path class="st6" d="M-1753.7,787.4h4.4v30.7h14.7v3.7h-19.1V787.4z"/>
	<path class="st6" d="M-1725.4,810.3c0.1,6.1,4,8.6,8.5,8.6c3.2,0,5.2-0.6,6.8-1.3l0.8,3.2c-1.6,0.7-4.3,1.5-8.2,1.5
		c-7.6,0-12.1-5-12.1-12.4c0-7.5,4.4-13.3,11.6-13.3c8.1,0,10.2,7.1,10.2,11.6c0,0.9-0.1,1.6-0.2,2.1H-1725.4z M-1712.3,807.1
		c0.1-2.9-1.2-7.3-6.2-7.3c-4.5,0-6.5,4.2-6.9,7.3H-1712.3z"/>
	<path class="st6" d="M-1686.1,821.8l-0.4-3.1h-0.2c-1.4,1.9-4,3.7-7.6,3.7c-5,0-7.6-3.5-7.6-7.1c0-6,5.3-9.2,14.8-9.2v-0.5
		c0-2-0.6-5.7-5.6-5.7c-2.3,0-4.7,0.7-6.4,1.8l-1-3c2-1.3,5-2.2,8.1-2.2c7.6,0,9.4,5.2,9.4,10.1v9.2c0,2.1,0.1,4.2,0.4,5.9H-1686.1z
		 M-1686.8,809.2c-4.9-0.1-10.5,0.8-10.5,5.6c0,2.9,1.9,4.3,4.2,4.3c3.2,0,5.3-2,6-4.1c0.2-0.5,0.3-1,0.3-1.4V809.2z"/>
	<path class="st6" d="M-1672.7,804.8c0-2.9-0.1-5.4-0.2-7.7h3.9l0.2,4.8h0.2c1.1-3.3,3.8-5.4,6.8-5.4c0.5,0,0.9,0.1,1.3,0.2v4.2
		c-0.5-0.1-0.9-0.2-1.5-0.2c-3.2,0-5.4,2.4-6,5.8c-0.1,0.6-0.2,1.3-0.2,2.1v13.2h-4.4V804.8z"/>
	<path class="st6" d="M-1653.2,803.8c0-2.6-0.1-4.6-0.2-6.7h4l0.3,4.1h0.1c1.2-2.3,4.1-4.6,8.2-4.6c3.4,0,8.7,2,8.7,10.5v14.7h-4.5
		v-14.2c0-4-1.5-7.3-5.7-7.3c-3,0-5.3,2.1-6,4.6c-0.2,0.6-0.3,1.3-0.3,2.1v14.8h-4.5V803.8z"/>
	<path class="st6" d="M-1609,803.8c0-2.6-0.1-4.6-0.2-6.7h3.9l0.2,4h0.2c1.4-2.3,3.7-4.5,7.8-4.5c3.4,0,5.9,2,7,4.9h0.1
		c0.8-1.4,1.7-2.4,2.8-3.2c1.5-1.1,3.1-1.7,5.5-1.7c3.3,0,8.1,2.1,8.1,10.7v14.5h-4.4v-14c0-4.7-1.7-7.6-5.4-7.6
		c-2.6,0-4.5,1.9-5.3,4.1c-0.2,0.6-0.4,1.4-0.4,2.2v15.3h-4.4V807c0-3.9-1.7-6.8-5.2-6.8c-2.8,0-4.8,2.2-5.6,4.5
		c-0.3,0.7-0.4,1.4-0.4,2.2v14.9h-4.4V803.8z"/>
	<path class="st6" d="M-1541.5,809.3c0,9.1-6.3,13.1-12.3,13.1c-6.7,0-11.8-4.9-11.8-12.7c0-8.3,5.4-13.1,12.2-13.1
		C-1546.3,796.6-1541.5,801.7-1541.5,809.3z M-1561.1,809.5c0,5.4,3.1,9.5,7.5,9.5c4.3,0,7.5-4,7.5-9.6c0-4.2-2.1-9.5-7.4-9.5
		C-1558.8,799.9-1561.1,804.8-1561.1,809.5z"/>
	<path class="st6" d="M-1533.3,804.8c0-2.9-0.1-5.4-0.2-7.7h3.9l0.2,4.8h0.2c1.1-3.3,3.8-5.4,6.8-5.4c0.5,0,0.9,0.1,1.3,0.2v4.2
		c-0.5-0.1-0.9-0.2-1.5-0.2c-3.2,0-5.4,2.4-6,5.8c-0.1,0.6-0.2,1.3-0.2,2.1v13.2h-4.4V804.8z"/>
	<path class="st6" d="M-1512.1,810.3c0.1,6.1,4,8.6,8.5,8.6c3.2,0,5.2-0.6,6.8-1.3l0.8,3.2c-1.6,0.7-4.3,1.5-8.2,1.5
		c-7.6,0-12.1-5-12.1-12.4c0-7.5,4.4-13.3,11.6-13.3c8.1,0,10.2,7.1,10.2,11.6c0,0.9-0.1,1.6-0.2,2.1H-1512.1z M-1498.9,807.1
		c0.1-2.9-1.2-7.3-6.2-7.3c-4.5,0-6.5,4.2-6.9,7.3H-1498.9z"/>
</g>
</svg>
